<svg xmlns="http://www.w3.org/2000/svg" width="243" height="140" viewBox="0 0 243 140">
  <g id="NextJS" transform="translate(0 478)">
    <path id="Path_13" data-name="Path 13" d="M412.375-459.636c-8.267,10.134-19.908,24.749-25.834,32.51-8.358,10.954-10.85,14.029-11.124,13.766-.213-.205-5.015-6.561-10.668-14.117l-10.3-13.766-2.644-.088c-1.489-.059-2.614.029-2.553.176.03.146,5.349,7.293,11.793,15.875,6.443,8.611,11.671,15.728,11.641,15.845s-5.653,7.557-12.492,16.548c-6.808,9.021-12.492,16.548-12.644,16.753-.152.264.4.351,2.462.351h2.675l11.4-15.084c6.261-8.289,11.489-15.084,11.58-15.084s5.288,6.795,11.519,15.084l11.367,15.084h2.675a16.313,16.313,0,0,0,2.675-.117c0-.088-5.684-7.674-12.613-16.87l-12.613-16.753.973-1.377c.547-.732,11.489-15.962,24.345-33.858,12.856-17.866,23.464-32.657,23.525-32.862.091-.205.091-.381.03-.381C427.45-478,420.642-469.741,412.375-459.636Z" transform="translate(-241.898)" fill="white" />
    <path id="Path_14" data-name="Path 14" d="M0-320.2v32.8H4.559l.03-18.979c.03-10.427.152-23.87.243-29.874l.182-10.925,21.4,29.962C45.5-290.5,49.42-285.2,62.55-268.444c8.115,10.368,14.862,18.833,15.014,18.833a36.943,36.943,0,0,0-3.191-4.92c-1.884-2.695-18.114-25.95-36.047-51.695L5.714-353H0Z" transform="translate(0 -88.389)" fill="white"  />
    <path id="Path_15" data-name="Path 15" d="M189-320.2v32.8h46.5V-291.2H193.255v-28.41h39.207v-3.808H193.255v-26.067h41.639V-353H189Z" transform="translate(-131.556 -88.389)" fill="white" />
    <path id="Path_16" data-name="Path 16" d="M538-351.243v1.757h24.011v62.092h4.559v-62.092h24.011V-353H538Z" transform="translate(-374.484 -88.389)" fill="white"  />
    <path id="Path_17" data-name="Path 17" d="M764.369-194.472a3.787,3.787,0,0,0-2.523,3.632c-.182,2.636.851,3.632,5.015,4.569,3.1.732,4.255,2.021,2.887,3.192-1.611,1.406-4.529,1.2-5.471-.41-.456-.732-.7-.849-1.854-.849-1.064,0-1.277.088-1.125.469a3.271,3.271,0,0,1,.182.849c0,.762,1.793,2.372,2.979,2.724a11.143,11.143,0,0,0,5.2.059,4.269,4.269,0,0,0,3.07-5.243c-.4-1.464-1.428-2.255-3.617-2.841-4.529-1.2-5.44-1.9-4.377-3.28,1.216-1.582,4.225-1.435,5.106.264.4.732.638.849,1.7.849,1.216,0,1.246-.029,1.064-.82a5.335,5.335,0,0,0-2.128-2.812C769.445-194.882,765.768-195.087,764.369-194.472Z" transform="translate(-529.884 -200.231)" fill="white"  />
    <path id="Path_18" data-name="Path 18" d="M728.687-188.435c0,5.184-.03,5.594-.608,6.151a2.481,2.481,0,0,1-1.52.586c-.881,0-2.128-.849-2.128-1.464,0-.176-.547-.293-1.216-.293-1.064,0-1.216.088-1.216.644a4.254,4.254,0,0,0,2.158,3.046,5.493,5.493,0,0,0,2.918.351c1.672-.088,2.067-.234,2.857-1.025,1.246-1.2,1.459-2.372,1.489-8.523V-194h-2.735Z" transform="translate(-502.56 -200.82)" fill="white"  />
  </g>
</svg>
